<?xml version="1.0" encoding="UTF-8"?>
<svg width="22px" height="22px" viewBox="0 0 22 22" version="1.1" xmlns="http://www.w3.org/2000/svg" xmlns:xlink="http://www.w3.org/1999/xlink">
    <title>D39290A0-8709-4795-B05B-A6F18ABCE487</title>
    <g id="Page-2" stroke="none" stroke-width="1" fill="none" fill-rule="evenodd">
        <g id="01-Settings" transform="translate(-20.000000, -154.000000)">
            <g id="Componants/1-Menu-Item/line-48px-EN-Copy-5" transform="translate(0.000000, 140.000000)">
                <g id="icons/ic_left" transform="translate(20.916667, 14.000000)">
                    <path d="M5.60505,15.8608083 L10.4789667,18.6740583 C9.70621667,20.0151417 8.00121667,20.4368083 6.65921667,19.662225 C5.98821667,19.2763083 5.53721667,18.663975 5.3438,17.965475 C5.15038333,17.2678917 5.22463333,16.5198917 5.60505,15.8608083 Z M16.0001417,4.15598333 C17.4750583,5.00756667 18.474225,6.37523333 18.8775583,7.8969 C19.2808917,9.41948333 19.123225,11.0859833 18.273475,12.55815 L16.103725,16.3155667 L16.0533083,16.4044833 L5.36589167,10.2334833 L7.58605833,6.38806667 C9.286475,3.44373333 13.048475,2.4519 16.0001417,4.15598333 Z" id="Combined-Shape" fill="#F1EFFA"></path>
                    <path d="M18.5694343,17.4061753 L17.2361813,16.6602027 L19.1950677,13.3695925 C20.1671907,11.7356474 20.4199817,9.81864927 19.9075675,7.95939773 C19.6118312,6.85558545 19.0418314,5.84075976 18.2649139,5.01242722 C18.7568315,4.77386745 19.1570026,4.42265445 19.4263861,3.96825489 C19.7914202,3.35576215 19.890975,2.65522948 19.6713689,1.95753682 C19.4859238,1.30907078 19.0154787,0.71267135 18.3966775,0.366191682 C17.7534757,0.00645869434 17.0234074,-0.100514536 16.3011474,0.100178604 C15.6062161,0.255431789 15.0157197,0.71267135 14.665326,1.30244412 C14.3813021,1.77861699 14.2680829,2.2898165 14.3139562,2.79912268 C11.2560633,2.17716328 8.02150956,3.45137539 6.38764021,6.19765275 L4.42875384,9.48826292 L3.09550084,8.74134364 C2.69044959,8.51414386 2.20536413,8.63626374 1.97599777,9.02250337 L0.111786024,12.153127 C-0.117580342,12.5393667 0.0161353695,13.0079662 0.420210585,13.2342193 L4.91969547,15.7542436 C4.7118017,16.4244829 4.68642499,17.1060823 4.88260644,17.7905216 C5.15003786,18.7277207 5.78055136,19.5342799 6.66190382,20.0274928 C8.23330744,20.9069453 10.200978,20.5869723 11.3712345,19.3667201 L15.8707194,21.8857977 C16.2757707,22.1129975 16.7598801,21.9918243 16.9902225,21.6055846 L18.8544342,18.4740143 C19.1082013,18.101028 18.9735095,17.6333751 18.5694343,17.4061753 L18.5694343,17.4061753 Z M16.7335274,1.61295049 C17.0321916,1.53816389 17.3249998,1.58076385 17.585599,1.72749704 C17.8237496,1.86097691 18.0316434,2.09859002 18.1038694,2.35040311 C18.1858557,2.6381895 18.1468146,2.91934923 17.9984585,3.16832233 C17.8501023,3.41824209 17.6324483,3.56876194 17.3445203,3.67952183 C17.0595204,3.73253512 16.7667123,3.68993516 16.506113,3.54320197 C15.9819865,3.24973558 15.7965414,2.60126954 16.0932536,2.10143002 C16.2289214,1.8751769 16.4729281,1.67921709 16.7335274,1.61295049 L16.7335274,1.61295049 Z M7.81556784,6.99758532 C9.3957557,4.34218786 12.9172614,3.4400154 15.6550174,4.97266726 C16.9882704,5.71958654 17.9291605,6.91143873 18.341044,8.35321068 C18.739263,9.81580928 18.522585,11.2992345 17.766164,12.56966 L15.8082537,15.8602701 L5.85668147,10.2872488 L7.81556784,6.99758532 Z M7.49543096,18.6794408 C6.99570509,18.3992277 6.62774287,17.9505081 6.47353059,17.4109087 C6.39056829,17.1221756 6.37983199,16.8741492 6.4198491,16.5939361 L9.89548157,18.5402809 C9.24154342,19.0514804 8.30553344,19.131947 7.49543096,18.6794408 L7.49543096,18.6794408 Z M15.9907707,20.1382527 L1.9447649,12.2724069 L2.99887416,10.5030886 L17.04488,18.3689344 L15.9907707,20.1382527 Z" id="Fill-5" fill="#279151"></path>
                </g>
            </g>
        </g>
    </g>
</svg>
