<?xml version="1.0" encoding="UTF-8"?>
<svg width="16px" height="16px" viewBox="0 0 16 16" version="1.1" xmlns="http://www.w3.org/2000/svg" xmlns:xlink="http://www.w3.org/1999/xlink">
    <title>B267013E-3A32-4B09-9F41-17706F2105B1</title>
    <defs>
        <path d="M9.21853329,7.50027616 L14.7630562,1.95501688 C15.0789813,1.63982817 15.0789813,1.1235962 14.7630562,0.807671065 L14.1915925,0.236943848 C13.8771402,-0.0789812826 13.3609083,-0.0789812826 13.0449831,0.236943848 L7.50046026,5.78220313 L1.95520098,0.236943848 C1.63927585,-0.0789812826 1.12304388,-0.0789812826 0.80785517,0.236943848 L0.236391531,0.807671065 C-0.078797177,1.1235962 -0.078797177,1.63982817 0.236391531,1.95501688 L5.78165081,7.50027616 L0.236391531,13.044799 C-0.078797177,13.3607241 -0.078797177,13.8769561 0.236391531,14.1921448 L0.80785517,14.7636085 C1.12304388,15.0795336 1.63927585,15.0795336 1.95520098,14.7636085 L7.50046026,9.21834919 L13.0449831,14.7636085 C13.3609083,15.0795336 13.8771402,15.0795336 14.1915925,14.7636085 L14.7630562,14.1921448 C15.0789813,13.8769561 15.0789813,13.3607241 14.7630562,13.044799 L9.21853329,7.50027616 Z" id="path-1"></path>
    </defs>
    <g id="Page-1" stroke="none" stroke-width="1" fill="none" fill-rule="evenodd">
        <g id="01-Company-information" transform="translate(-21.000000, -46.000000)">
            <g id="Controls/1.-kit/page-title-EN" transform="translate(0.000000, 4.000000)">
                <g id="back" transform="translate(21.500000, 42.500000)">
                    <mask id="mask-2" fill="white">
                        <use xlink:href="#path-1"></use>
                    </mask>
                    <use id="Mask" fill="#279151" xlink:href="#path-1"></use>
                </g>
            </g>
        </g>
    </g>
</svg>
