<?xml version="1.0" encoding="UTF-8"?>
<svg width="22px" height="22px" viewBox="0 0 22 22" version="1.1" xmlns="http://www.w3.org/2000/svg" xmlns:xlink="http://www.w3.org/1999/xlink">
    <title>64CFBE90-CF6B-405D-8F63-15C11BD3BAC7</title>
    <defs>
        <path d="M14.9595354,0.292900041 C15.3500688,-0.097633347 15.9832689,-0.097633347 16.3737356,0.292900041 L16.3737356,0.292900041 L21.7070697,5.62623412 C22.0976698,6.01676751 22.0976698,6.64990093 21.7070697,7.04036765 L21.7070697,7.04036765 L7.04040099,21.7070364 C6.85293429,21.8945697 6.59853426,21.9999698 6.33333422,21.9999698 L6.33333422,21.9999698 L1,21.9999698 C0.447733396,21.9999698 9.23705556e-14,21.5522364 9.23705556e-14,20.9999696 L9.23705556e-14,20.9999696 L9.23705556e-14,15.6666355 C9.23705556e-14,15.4014355 0.105400015,15.1471021 0.292866708,14.9595688 L0.292866708,14.9595688 Z M11.333,6.747 L2.00000028,16.0808356 L2.00000028,19.9999695 L5.91913416,19.9999695 L15.254,10.664 L15.2119855,10.626116 L11.333,6.747 Z M15.6666689,2.41416701 L12.748,5.333 L16.6261857,9.2119825 C16.6397675,9.22556438 16.6528772,9.23944061 16.6655147,9.25359066 L19.5858027,6.33330089 L15.6666689,2.41416701 Z" id="path-1"></path>
    </defs>
    <g id="Page-2" stroke="none" stroke-width="1" fill="none" fill-rule="evenodd">
        <g id="01-main-my-screens-1" transform="translate(-20.000000, -459.000000)">
            <g id="Componants/1-Menu-Item/line-48px-EN" transform="translate(0.000000, 440.000000)">
                <g id="icons/ic_left" transform="translate(20.000000, 19.000000)">
                    <mask id="mask-2" fill="white">
                        <use xlink:href="#path-1"></use>
                    </mask>
                    <use id="Mask" fill="#279151" xlink:href="#path-1"></use>
                </g>
            </g>
        </g>
    </g>
</svg>
