<?xml version="1.0" encoding="UTF-8"?>
<svg width="14px" height="13px" viewBox="0 0 14 13" version="1.1" xmlns="http://www.w3.org/2000/svg" xmlns:xlink="http://www.w3.org/1999/xlink">
    <title>B243E128-CC4C-463C-8F7E-0EA9F49CD7C1</title>
    <defs>
        <path d="M1.98380567,-5.32907052e-14 L12.8723631,10.8885574 L11.9714468,11.7894737 L10.12785,9.94587684 C9.17920307,10.5514596 8.13509482,11.0108672 7.00149158,11.0108672 C3.18303857,11.0108672 7.54951657e-14,5.91860217 7.54951657e-14,5.91860217 C7.54951657e-14,5.91860217 1.13062007,4.14063499 2.84892393,2.66695078 L2.84892393,2.66695078 L1.08288941,0.900916258 L1.98380567,-5.32907052e-14 Z M3.77072235,3.59173237 C2.86682293,4.3613893 2.07628383,5.26827189 1.52439804,5.98423183 C2.60728745,7.44896655 4.83571276,9.80268485 6.99850842,9.80268485 C7.77413169,9.80268485 8.50799062,9.50735137 9.23290006,9.05391008 L9.23290006,9.05391008 Z M6.99850842,0.829320264 C10.8169614,0.829320264 14,5.91860217 14,5.91860217 C14,5.91860217 13.2363094,7.12976774 12.028127,8.33795014 L12.028127,8.33795014 L11.1361602,7.44598338 C11.6462817,6.93586192 12.15342,6.36309397 12.4726188,5.91860217 C11.3897294,4.45386746 9.16130407,2.10014916 6.99850842,2.10014916 C6.67930961,2.10014916 6.29746431,2.16577882 5.9782655,2.22842531 L5.9782655,2.22842531 L4.96100575,1.27381206 C5.59940337,1.02024291 6.29746431,0.829320264 6.99850842,0.829320264 Z" id="path-1"></path>
    </defs>
    <g id="Page-1" stroke="none" stroke-width="1" fill="none" fill-rule="evenodd">
        <g id="01-sign-in" transform="translate(-311.000000, -247.000000)">
            <g id="Controls/2.-Forms/4.Phone-AR-Copy" transform="translate(20.000000, 231.000000)">
                <g id="ic/back-copy" transform="translate(298.000000, 22.503070) rotate(-360.000000) translate(-298.000000, -22.503070) translate(291.000000, 16.608333)">
                    <mask id="mask-2" fill="white">
                        <use xlink:href="#path-1"></use>
                    </mask>
                    <use id="Mask" fill="#74747C" xlink:href="#path-1"></use>
                </g>
            </g>
        </g>
    </g>
</svg>