<?xml version="1.0" encoding="UTF-8"?>
<svg width="22px" height="22px" viewBox="0 0 22 22" version="1.1" xmlns="http://www.w3.org/2000/svg" xmlns:xlink="http://www.w3.org/1999/xlink">
    <title>BDE0C217-CA9F-4A67-B37C-7E224138560F</title>
    <g id="Page-2" stroke="none" stroke-width="1" fill="none" fill-rule="evenodd">
        <g id="01-Menu" transform="translate(-20.000000, -338.000000)">
            <g id="Componants/1-Menu-Item/line-48px-EN-Copy-3" transform="translate(0.000000, 324.000000)">
                <g id="icons/ic_left" transform="translate(20.000000, 14.003223)">
                    <path d="M9.796875,21.1331055 L3.30859375,20.875293 L0.210546875,17.5237305 L1.03125,9.05888672 L10.6992187,15.5041992 C10.6992187,15.5041992 12.8046875,15.203418 13.0195312,15.0959961 C13.234375,14.9885742 20.5820312,9.05888672 20.5820312,9.05888672 L20.8398437,17.781543 L19.3359375,20.2780273 L13.1054687,21.3479492 L9.796875,21.1331055 Z" id="Path" fill="#F1EFFA"></path>
                    <path d="M14.1238281,1.05380859 L19.9675781,5.50966797 C21.2394531,6.48076172 21.9957091,8.01044922 21.9957091,9.60888672 L21.9957091,16.8405273 C22,19.6807617 19.6882813,21.9967773 16.84375,21.9967773 L5.15625,21.9967773 C2.31171875,21.9967773 1.77635684e-15,19.6807617 1.77635684e-15,16.8405273 L1.77635684e-15,9.60888672 C1.77635684e-15,8.01044922 0.760546875,6.47646484 2.028125,5.50966797 L7.871875,1.05380859 C9.7109375,-0.351269531 12.2847656,-0.351269531 14.1238281,1.05380859 Z M20.281,10.367 L14.128125,15.1475586 C13.2085937,15.8522461 12.1042969,16.2045898 11.0042969,16.2003318 C9.99202474,16.2003318 8.9797526,15.9042325 8.10979705,15.3154036 L7.87617187,15.1475586 L1.718,10.394 L1.71875,16.8405273 C1.71875,18.7354492 3.26132813,20.2780273 5.15625,20.2780273 L16.84375,20.2780273 C18.7386719,20.2780273 20.28125,18.7354492 20.28125,16.8405273 L20.281,10.367 Z M11,1.71552734 C10.2652344,1.71552734 9.53046875,1.94755859 8.91601563,2.41591797 L3.07226563,6.87177734 C2.55582465,7.26500651 2.16573602,7.79898259 1.94005569,8.39759369 L8.91601562,13.7811523 C10.0849609,14.675293 11.7002308,14.7159357 12.9134883,13.9030806 L13.0839844,13.7811523 L20.0489844,8.37320429 C19.8217475,7.78622655 19.4359115,7.26301108 18.9277344,6.87607422 L13.0839844,2.42021484 C12.4695313,1.95185547 11.7347656,1.71552734 11,1.71552734 Z M11,4.85224609 C11.4726562,4.85224609 11.859375,5.23896484 11.859375,5.71162109 L11.859375,5.71162109 L11.859375,7.43037109 L13.578125,7.43037109 C14.0507812,7.43037109 14.4375,7.81708984 14.4375,8.28974609 C14.4375,8.76240234 14.0507812,9.14912109 13.578125,9.14912109 L13.578125,9.14912109 L11.859375,9.14912109 L11.859375,10.8678711 C11.859375,11.3405273 11.4726562,11.7272461 11,11.7272461 C10.5273437,11.7272461 10.140625,11.3405273 10.140625,10.8678711 L10.140625,10.8678711 L10.140625,9.14912109 L8.421875,9.14912109 C7.94921875,9.14912109 7.5625,8.76240234 7.5625,8.28974609 C7.5625,7.81708984 7.94921875,7.43037109 8.421875,7.43037109 L8.421875,7.43037109 L10.140625,7.43037109 L10.140625,5.71162109 C10.140625,5.23896484 10.5273437,4.85224609 11,4.85224609 Z" id="Combined-Shape" fill="#279151"></path>
                </g>
            </g>
        </g>
    </g>
</svg>
