<?xml version="1.0" encoding="UTF-8"?>
<svg width="22px" height="22px" viewBox="0 0 22 22" version="1.1" xmlns="http://www.w3.org/2000/svg" xmlns:xlink="http://www.w3.org/1999/xlink">
    <title>B42CAF1A-A8B9-4E2F-BDBC-3371E4DB3AB8</title>
    <g id="Page-2" stroke="none" stroke-width="1" fill="none" fill-rule="evenodd">
        <g id="01-Settings" transform="translate(-20.000000, -104.000000)">
            <g id="Componants/1-Menu-Item/line-48px-EN-Copy-4" transform="translate(0.000000, 90.000000)">
                <g id="icons/ic_left" transform="translate(20.021154, 14.021154)">
                    <path d="M2.17884615,15.6115385 C2.61038462,15.6115385 2.96153846,15.9626923 2.96153846,16.3942308 C2.96153846,17.8284615 4.12923077,18.9961538 5.56346154,18.9961538 C5.995,18.9961538 6.34615385,19.3473077 6.34615385,19.7788462 C6.34615385,20.2103846 5.995,20.5615385 5.56346154,20.5615385 C3.26615385,20.5615385 1.39615385,18.6915385 1.39615385,16.3942308 C1.39615385,15.9626923 1.74730769,15.6115385 2.17884615,15.6115385 Z M14.4057692,8.41923077 C17.7057692,8.41923077 20.3923077,11.1057692 20.3923077,14.4057692 C20.3923077,17.7057692 17.7057692,20.3923077 14.4057692,20.3923077 C11.1057692,20.3923077 8.41923077,17.7057692 8.41923077,14.4057692 C8.41923077,11.1057692 11.1057692,8.41923077 14.4057692,8.41923077 Z M15.7173077,10.5346154 C15.2857692,10.5346154 14.9346154,10.8857692 14.9346154,11.3173077 L14.9346154,11.3173077 L14.9346154,17.4096154 C14.9346154,17.8411538 15.2857692,18.1923077 15.7173077,18.1923077 C16.1488462,18.1923077 16.5,17.8411538 16.5,17.4096154 L16.5,17.4096154 L16.5,14.4692308 L17.0711538,14.4692308 C17.5026923,14.4692308 17.8538462,14.1180769 17.8538462,13.6865385 C17.8538462,13.255 17.5026923,12.9038462 17.0711538,12.9038462 L17.0711538,12.9038462 L16.5,12.9038462 L16.5,11.3173077 C16.5,10.8857692 16.1488462,10.5346154 15.7173077,10.5346154 Z M13.3480769,11.2115385 L11.6557692,11.2115385 C11.2242308,11.2115385 10.8730769,11.5626923 10.8730769,11.9942308 C10.8730769,12.4257692 11.2242308,12.7769231 11.6557692,12.7769231 L11.6557692,12.7769231 L12.5188462,12.7769231 C12.2734615,15.0192308 11.495,15.8653846 11.1692308,16.1234615 C11.0084615,16.2546154 10.9026923,16.4407692 10.8815385,16.6480769 C10.8561538,16.8553846 10.9153846,17.0584615 11.0465385,17.2234615 C11.1776923,17.3842308 11.3638462,17.49 11.5711538,17.5111538 C11.6007692,17.5153846 11.6303846,17.5153846 11.66,17.5153846 C11.8376923,17.5153846 12.0069231,17.4561538 12.1465385,17.3419231 C13.9974396,15.862 14.1220107,12.5541981 14.1302036,12.0533346 L14.1307692,11.9942308 C14.1307692,11.5626923 13.7796154,11.2115385 13.3480769,11.2115385 L13.3480769,11.2115385 Z M16.3942308,1.39615385 C18.6915385,1.39615385 20.5615385,3.26615385 20.5615385,5.56346154 C20.5615385,5.995 20.2103846,6.34615385 19.7788462,6.34615385 C19.3473077,6.34615385 18.9961538,5.995 18.9961538,5.56346154 C18.9961538,4.12923077 17.8284615,2.96153846 16.3942308,2.96153846 C15.9626923,2.96153846 15.6115385,2.61038462 15.6115385,2.17884615 C15.6115385,1.74730769 15.9626923,1.39615385 16.3942308,1.39615385 Z" id="Combined-Shape" fill="#F1EFFA"></path>
                    <path d="M7.55192308,0 C9.48961538,0 11.33,0.731923077 12.7346154,2.05615385 C14.0884615,3.33384615 14.9176923,5.04730769 15.0742308,6.88346154 C16.9230769,7.04846154 18.6407692,7.89038462 19.9184615,9.25269231 C21.2342308,10.6573077 21.9576923,12.485 21.9576923,14.4057692 C21.9576923,18.5688462 18.5688462,21.9576923 14.4057692,21.9576923 C12.4892308,21.9576923 10.6573077,21.2342308 9.25269231,19.9184615 C7.88615385,18.6407692 7.04846154,16.9230769 6.88346154,15.0742308 C5.04730769,14.9176923 3.33384615,14.0884615 2.05615385,12.7346154 C0.731923077,11.33 0,9.48961538 0,7.55192308 C0,3.38884615 3.38884615,0 7.55192308,0 Z M14.4057692,8.41923077 C11.1057692,8.41923077 8.41923077,11.1057692 8.41923077,14.4057692 C8.41923077,17.7057692 11.1057692,20.3923077 14.4057692,20.3923077 C17.7057692,20.3923077 20.3923077,17.7057692 20.3923077,14.4057692 C20.3923077,11.1057692 17.7057692,8.41923077 14.4057692,8.41923077 Z M15.7173077,10.5346154 C16.1488462,10.5346154 16.5,10.8857692 16.5,11.3173077 L16.5,11.3173077 L16.5,12.9038462 L17.0711538,12.9038462 C17.5026923,12.9038462 17.8538462,13.255 17.8538462,13.6865385 C17.8538462,14.1180769 17.5026923,14.4692308 17.0711538,14.4692308 L17.0711538,14.4692308 L16.5,14.4692308 L16.5,17.4096154 C16.5,17.8411538 16.1488462,18.1923077 15.7173077,18.1923077 C15.2857692,18.1923077 14.9346154,17.8411538 14.9346154,17.4096154 L14.9346154,17.4096154 L14.9346154,11.3173077 C14.9346154,10.8857692 15.2857692,10.5346154 15.7173077,10.5346154 Z M13.3480769,11.2115385 C13.7796154,11.2115385 14.1307692,11.5626923 14.1307692,11.9942308 L14.1307692,11.9942308 L14.1302036,12.0533346 C14.1220107,12.5541981 13.9974396,15.862 12.1465385,17.3419231 C12.0069231,17.4561538 11.8376923,17.5153846 11.66,17.5153846 C11.6303846,17.5153846 11.6007692,17.5153846 11.5711538,17.5111538 C11.3638462,17.49 11.1776923,17.3884615 11.0465385,17.2234615 C10.9196154,17.0584615 10.8603846,16.8553846 10.8815385,16.6480769 C10.9026923,16.4407692 11.0042308,16.2546154 11.1692308,16.1234615 C11.495,15.8611538 12.2734615,15.015 12.5188462,12.7769231 L12.5188462,12.7769231 L11.6557692,12.7769231 C11.2242308,12.7769231 10.8730769,12.4257692 10.8730769,11.9942308 C10.8730769,11.5626923 11.2242308,11.2115385 11.6557692,11.2115385 L11.6557692,11.2115385 Z M7.55192308,1.56538462 C4.25192308,1.56538462 1.56538462,4.25192308 1.56961039,7.54346154 C1.56961039,9.07923077 2.145,10.5346154 3.19423077,11.6473077 C4.18,12.6965385 5.5,13.3523077 6.90884615,13.5003846 C7.05692308,12.2692308 7.51384615,11.0846154 8.22884615,10.065 L8.22884615,10.065 L6.57038462,10.065 L6.29961538,10.8857692 C6.19384615,11.2073077 5.89769231,11.4230769 5.55923077,11.4230769 C5.30538462,11.4230769 5.07269231,11.3046154 4.92461538,11.0973077 C4.79346154,10.9153846 4.75115385,10.6996154 4.79346154,10.4838462 C4.80192308,10.45 4.81038462,10.4203846 4.81884615,10.3907692 L4.81884615,10.3907692 L6.84961538,4.29846154 C6.95961538,3.98115385 7.25576923,3.76538462 7.59423077,3.76538462 C7.93269231,3.76538462 8.22884615,3.98115385 8.33461538,4.30269231 L8.33461538,4.30269231 L9.72653846,8.48269231 C10.8223077,7.61538462 12.1253846,7.07384615 13.5046154,6.90884615 C13.3565385,5.48730769 12.6923077,4.15884615 11.6346154,3.17307692 C10.5219231,2.13653846 9.075,1.56538462 7.55192308,1.56538462 Z M7.59423077,7.02307692 L7.10346154,8.50384615 L8.08923077,8.50384615 L7.59423077,7.02307692 Z" id="Combined-Shape" fill="#279151"></path>
                </g>
            </g>
        </g>
    </g>
</svg>
