<?xml version="1.0" encoding="UTF-8"?>
<svg width="18px" height="18px" viewBox="0 0 18 18" version="1.1" xmlns="http://www.w3.org/2000/svg" xmlns:xlink="http://www.w3.org/1999/xlink">
    <title>F8E69C60-0992-4CED-87D0-AEABC9719054</title>
    <g id="Page-2" stroke="none" stroke-width="1" fill="none" fill-rule="evenodd">
        <g id="01-main-my-screens" transform="translate(-31.000000, -147.000000)" fill="#279151">
            <g id="Group" transform="translate(0.000000, 136.000000)">
                <g id="Controls/Button/rectangle" transform="translate(20.000000, 0.000000)">
                    <g id="3-.ic/solid/ic_tick" transform="translate(11.000000, 10.999775)">
                        <path d="M9.00075,15.12315 C10.8375,15.12315 12.546,15.6729 13.9695,16.61715 C14.4495,16.9359 14.4135,17.6514 13.90125,17.91465 C13.6605,18.03915 13.371,18.0249 13.146,17.87565 C11.958,17.0844 10.53225,16.62315 9.00075,16.62315 C7.46925,16.62315 6.04275,17.08515 4.854,17.87715 C4.62825,18.02715 4.338,18.0399 4.09725,17.9154 C3.5865,17.6514 3.55125,16.9374 4.0305,16.6194 C5.45475,15.67365 7.164,15.12315 9.00075,15.12315 Z M15.75,0 C16.9875,0 18,1.0125 18,2.25 L18,2.25 L18,11.25 C18,12.4875 16.9875,13.5 15.75,13.5 L15.75,13.5 L2.25,13.5 C1.0125,13.5 0,12.4875 0,11.25 L0,11.25 L0,2.25 C0,1.0125 1.0125,0 2.25,0 L2.25,0 Z M16.5,10.5 L1.5,10.5 L1.5,11.25 C1.5,11.6565 1.8435,12 2.25,12 L2.25,12 L15.75,12 C16.1565,12 16.5,11.6565 16.5,11.25 L16.5,11.25 L16.5,10.5 Z M15.75,1.5 L2.25,1.5 C1.8435,1.5 1.5,1.8435 1.5,2.25 L1.5,2.25 L1.5,9 L16.5,9 L16.5,2.25 C16.5,1.8435 16.1565,1.5 15.75,1.5 L15.75,1.5 Z" id="Combined-Shape"></path>
                    </g>
                </g>
            </g>
        </g>
    </g>
</svg>
