<?xml version="1.0" encoding="UTF-8"?>
<svg width="16px" height="18px" viewBox="0 0 16 18" version="1.1" xmlns="http://www.w3.org/2000/svg" xmlns:xlink="http://www.w3.org/1999/xlink">
    <title>62B15B18-604C-4C04-B299-DA9EB891DCB5</title>
    <g id="Page-2" stroke="none" stroke-width="1" fill="none" fill-rule="evenodd">
        <g id="01-add-screen-2" transform="translate(-21.000000, -299.000000)" fill="#279151">
            <g id="ic/current-location-copy" transform="translate(21.500000, 299.000000)">
                <path d="M7.5,0 C11.6355215,0 15,3.23490234 15,7.21110938 L15,7.21110938 L15,7.41044531 C15,9.42138281 13.8008556,11.7647227 11.4358774,14.3753555 C9.95793235,16.0068479 8.49775882,17.2125777 8.07750749,17.5495601 L7.99713702,17.6135291 C7.97735125,17.6291409 7.96474434,17.6389659 7.9598396,17.6427773 L7.9598396,17.6427773 L7.5,18 L7.0401604,17.6427422 C7.03525819,17.6389308 7.02265362,17.6291057 7.00287003,17.6134939 L6.92250556,17.5495249 C6.50227705,17.2125426 5.04209918,16.0068128 3.56412257,14.3753203 C1.19910782,11.7647227 0,9.42134766 0,7.41041016 L0,7.41041016 L0,7.21107422 C0,3.23490234 3.36447846,0 7.5,0 Z M7.5,1.40705859 C4.17142822,1.40705859 1.46339858,4.01076563 1.46339858,7.21110938 L1.46339858,7.21110938 L1.46339858,7.41044531 C1.46339858,10.8085781 6.01718548,14.9222461 7.5,16.1714531 C8.98241231,14.9226328 13.5366014,10.8088242 13.5366014,7.41044531 L13.5366014,7.41044531 L13.5366014,7.21110938 C13.5366014,4.01076563 10.8285718,1.40705859 7.5,1.40705859 Z M7.5,3.75 C9.56778061,3.75 11.25,5.43225885 11.25,7.5 C11.25,9.56774115 9.56774115,11.25 7.5,11.25 C5.43225885,11.25 3.75,9.56774115 3.75,7.5 C3.75,5.43225885 5.43225885,3.75 7.5,3.75 Z M7.5,5.32893491 C6.30287839,5.32893491 5.32893491,6.30287839 5.32893491,7.5 C5.32893491,8.69712161 6.30287839,9.67106509 7.5,9.67106509 C8.69712161,9.67106509 9.67106509,8.69712161 9.67106509,7.5 C9.67106509,6.30287839 8.69712161,5.32893491 7.5,5.32893491 Z" id="Combined-Shape"></path>
            </g>
        </g>
    </g>
</svg>
