<?xml version="1.0" encoding="UTF-8"?>
<svg width="17px" height="22px" viewBox="0 0 17 22" version="1.1" xmlns="http://www.w3.org/2000/svg" xmlns:xlink="http://www.w3.org/1999/xlink">
    <title>7D9ACCE8-B636-42F3-89F0-0288B88414C2</title>
    <defs>
        <path d="M7.94555079,5.5067062e-14 L8.16617487,0.00614903527 C11.3879137,0.157269214 13.9752962,2.97386298 13.9752962,6.39186337 L13.9752962,6.39186337 L13.9752962,8.15659182 L14.5520544,8.15659182 C15.3506428,8.15659182 15.9959667,8.83208597 16,9.66378814 L16,9.66378814 L16,20.4885818 C16,21.3245059 15.3506428,22 14.5560877,22 L14.5560877,22 L1.44391228,22 C0.645323922,22 1.0658141e-14,21.320284 1.0658141e-14,20.4885818 L1.0658141e-14,20.4885818 L1.0658141e-14,9.66800998 C1.0658141e-14,8.83208597 0.649357197,8.15659182 1.44391228,8.15659182 L1.44391228,8.15659182 L12.0998235,8.15659182 L12.0998235,6.39186337 C12.0998235,3.97274995 10.2324174,1.98426406 7.93748425,1.96315486 C6.39677338,1.96315486 4.94882783,2.91306851 4.24703806,4.37804644 C4.13813965,4.61446939 3.94454248,4.78756477 3.70657928,4.87200154 C3.46861608,4.95221647 3.21451979,4.93532911 2.98865642,4.81711764 C2.76279304,4.703128 2.59742879,4.50047975 2.5167633,4.25139129 C2.44013108,4.00230282 2.45626418,3.736327 2.56919587,3.49990405 C3.58154777,1.37209749 5.69498361,5.5067062e-14 7.94555079,5.5067062e-14 L7.94555079,5.5067062e-14 Z M14.1204941,10.1197467 L1.87547265,10.1197467 L1.87547265,20.0326233 L14.1204941,20.0326233 L14.1204941,10.1197467 Z M7.99798336,13.9573978 C8.51827578,13.9573978 8.93773632,14.4006908 8.93773632,14.9410862 L8.93773632,14.9410862 L8.93773632,16.7902514 C8.93773632,17.3348685 8.5142425,17.7739397 7.99798336,17.7739397 C7.48172422,17.7739397 7.0582304,17.3306467 7.0582304,16.7902514 L7.0582304,16.7902514 L7.0582304,14.9410862 C7.0582304,14.396469 7.48172422,13.9573978 7.99798336,13.9573978 Z" id="path-1"></path>
    </defs>
    <g id="Page-2" stroke="none" stroke-width="1" fill="none" fill-rule="evenodd">
        <g id="01-main-my-screens-1" transform="translate(-22.000000, -519.000000)">
            <g id="Componants/1-Menu-Item/line-48px-EN-Copy" transform="translate(0.000000, 500.000000)">
                <g id="icons/ic_left" transform="translate(22.750000, 19.000000)">
                    <mask id="mask-2" fill="white">
                        <use xlink:href="#path-1"></use>
                    </mask>
                    <use id="Mask" fill="#279151" xlink:href="#path-1"></use>
                </g>
            </g>
        </g>
    </g>
</svg>
