<?xml version="1.0" encoding="UTF-8"?>
<svg width="40px" height="38px" viewBox="0 0 40 38" version="1.1" xmlns="http://www.w3.org/2000/svg" xmlns:xlink="http://www.w3.org/1999/xlink">
    <title>CEF65EB0-EEEA-4A64-AFD0-033046CE5543</title>
    <g id="Page-1" stroke="none" stroke-width="1" fill="none" fill-rule="evenodd">
        <g id="00-choose" transform="translate(-76.000000, -257.000000)" fill="#279151" fill-rule="nonzero">
            <g id="Group-2" transform="translate(20.000000, 210.000000)">
                <path d="M86.5882353,47 L86.5882353,54.03125 L93.6470588,54.03125 L93.6470588,75.125 L96,75.125 L96,77.46875 C96,81.3457813 92.8334118,84.5 88.9411765,84.5 L88.9411765,84.5 L63.0588235,84.5 C59.1665882,84.5 56,81.3457813 56,77.46875 L56,77.46875 L56,75.125 L58.3529412,75.125 L58.3529412,54.03125 L65.4117647,54.03125 L65.4117647,47 L86.5882353,47 Z M69.3905098,77.46875 L58.3529412,77.46875 C58.3529412,80.0534375 60.464,82.15625 63.0588235,82.15625 L63.0588235,82.15625 L88.9411765,82.15625 C91.536,82.15625 93.6470588,80.0534375 93.6470588,77.46875 L93.6470588,77.46875 L82.6094118,77.46875 L81.4329412,79.8125 L70.5669804,79.8125 L69.3905098,77.46875 Z M65.4117647,56.375 L60.7058824,56.375 L60.7058824,75.125 L70.8447059,75.125 L72.0211765,77.46875 L79.9787451,77.46875 L81.1552157,75.125 L91.2941176,75.125 L91.2941176,56.375 L86.5882353,56.375 L86.5882353,72.78125 L65.4117647,72.78125 L65.4117647,56.375 Z M84.2352941,49.34375 L67.7647059,49.34375 L67.7647059,70.4375 L84.2352941,70.4375 L84.2352941,49.34375 Z M81.5319149,65.75 L81.5319149,68.3068182 L69.6170213,68.3068182 L69.6170213,65.75 L81.5319149,65.75 Z M76,51.2613636 C77.935844,51.2613636 79.5106383,52.8671477 79.5106383,54.8409091 C79.5106383,55.6463864 79.2481986,56.3904545 78.8060922,56.9892727 C79.943617,57.8607727 80.6808511,59.2476477 80.6808511,60.8068182 L80.6808511,60.8068182 L80.6808511,63.1931818 L71.3191489,63.1931818 L71.3191489,60.8068182 C71.3191489,59.2475682 72.056383,57.8607727 73.1939078,56.9892727 C72.7518014,56.3904545 72.4893617,55.6463864 72.4893617,54.8409091 C72.4893617,52.8671477 74.064234,51.2613636 76,51.2613636 Z M76,58.4204545 C74.7094894,58.4204545 73.6595745,59.4909773 73.6595745,60.8068182 L73.6595745,60.8068182 L78.3404255,60.8068182 C78.3404255,59.4909773 77.2905106,58.4204545 76,58.4204545 Z M76,53.6477273 C75.3547447,53.6477273 74.8297872,54.1829886 74.8297872,54.8409091 C74.8297872,55.4988295 75.3547447,56.0340909 76,56.0340909 C76.6452553,56.0340909 77.1702128,55.4988295 77.1702128,54.8409091 C77.1702128,54.1829886 76.6452553,53.6477273 76,53.6477273 Z" id="Combined-Shape"></path>
            </g>
        </g>
    </g>
</svg>
