<?xml version="1.0" encoding="UTF-8"?>
<svg width="22px" height="22px" viewBox="0 0 22 22" version="1.1" xmlns="http://www.w3.org/2000/svg" xmlns:xlink="http://www.w3.org/1999/xlink">
    <title>815E5A70-E311-4E48-9541-5517C08AE13F</title>
    <g id="Page-2" stroke="none" stroke-width="1" fill="none" fill-rule="evenodd">
        <g id="01-Settings" transform="translate(-20.000000, -204.000000)">
            <g id="Componants/1-Menu-Item/line-48px-EN-Copy-5" transform="translate(0.000000, 190.000000)">
                <g id="icons/ic_left" transform="translate(19.999908, 14.000000)">
                    <path d="M18.8659167,2.39433333 C19.0785833,2.28066667 19.3215,2.255 19.5525,2.32375 C20.2455,2.53 20.8688333,2.96266667 21.3060833,3.54108333 C21.7598333,4.13966667 22,4.85466667 22,5.60725 L22,5.60725 L22,18.5725833 C22,20.46275 20.46275,22 18.5735,22 L18.5735,22 L3.4265,22 C1.53725,22 0,20.46275 0,18.5725833 L0,18.5725833 L0,5.60725 C0,4.12133333 0.94875,2.81233333 2.36041667,2.35033333 C2.83341667,2.19633333 3.344,2.45483333 3.498,2.92783333 C3.65291667,3.39991667 3.39441667,3.9105 2.92141667,4.0645 C2.25316667,4.28358333 1.804,4.90325 1.804,5.60725 L1.804,5.60725 L1.804,18.5725833 C1.804,19.4681667 2.53183333,20.196 3.4265,20.196 L3.4265,20.196 L18.5735,20.196 C19.4681667,20.196 20.196,19.4681667 20.196,18.5725833 L20.196,18.5725833 L20.196,5.60725 C20.196,4.895 19.72025,4.25516667 19.03825,4.05166667 C18.80725,3.98291667 18.6175,3.82891667 18.5029167,3.61716667 C18.3883333,3.40541667 18.36175,3.16158333 18.4314167,2.93058333 C18.5001667,2.69958333 18.6550833,2.50983333 18.8659167,2.39433333 Z M10.9990833,0 C12.8645,0 14.3834167,1.48958333 14.3834167,3.32016667 L14.3834167,5.30566667 C15.8033333,5.33041667 16.951,6.49366667 16.951,7.91908333 L16.951,14.20925 C16.951,14.7060833 16.54675,15.1103333 16.049,15.1103333 L5.99408333,15.1103333 C5.49633333,15.1103333 5.09208333,14.7060833 5.09208333,14.20925 L5.09208333,7.91908333 C5.09208333,6.5175 6.21958333,5.35608333 7.61566667,5.3075 L7.61566667,3.32016667 C7.61566667,1.48958333 9.13275,0 10.9990833,0 Z M10.9990833,1.804 C10.1273333,1.804 9.41875,2.48416667 9.41875,3.32016667 L9.41875,5.30566667 L12.5794167,5.30566667 L12.5794167,3.32016667 C12.5794167,2.48416667 11.8699167,1.804 10.9990833,1.804 Z" id="Combined-Shape" fill="#279151"></path>
                    <path d="M9.28858333,16.7731667 C9.78541667,16.7731667 10.1905833,17.1774167 10.1905833,17.6751667 C10.1905833,18.172 9.78541667,18.57625 9.28858333,18.57625 C8.79083333,18.57625 8.38658333,18.172 8.38658333,17.6751667 C8.38658333,17.1774167 8.79083333,16.7731667 9.28858333,16.7731667 Z M12.7114167,16.7731667 C13.20825,16.7731667 13.6134167,17.1774167 13.6134167,17.6751667 C13.6134167,18.172 13.20825,18.57625 12.7114167,18.57625 C12.2136667,18.57625 11.8094167,18.172 11.8094167,17.6751667 C11.8094167,17.1774167 12.2136667,16.7731667 12.7114167,16.7731667 Z M5.86575,16.7731667 C6.36258333,16.7731667 6.76683333,17.1774167 6.76683333,17.6751667 C6.76683333,18.172 6.36258333,18.57625 5.86575,18.57625 C5.368,18.57625 4.96375,18.172 4.96375,17.6751667 C4.96375,17.1774167 5.368,16.7731667 5.86575,16.7731667 Z M16.1351667,16.7731667 C16.632,16.7731667 17.03625,17.1774167 17.03625,17.6751667 C17.03625,18.172 16.632,18.57625 16.1351667,18.57625 C15.6374167,18.57625 15.2331667,18.172 15.2331667,17.6751667 C15.2331667,17.1774167 15.6374167,16.7731667 16.1351667,16.7731667 Z M14.3375833,7.10966667 C14.784,7.10966667 15.147,7.47266667 15.147,7.91908333 L15.147,7.91908333 L15.147,13.30725 L6.89608333,13.30725 L6.89608333,7.91908333 C6.89608333,7.47266667 7.25908333,7.10966667 7.7055,7.10966667 L7.7055,7.10966667 Z" id="Combined-Shape" fill="#F1EFFA"></path>
                    <path d="M11.902,10.1869167 C11.902,10.6846667 11.49775,11.088 11,11.088 C10.5031667,11.088 10.098,10.6846667 10.098,10.1869167 C10.098,9.69008333 10.5031667,9.28491667 11,9.28491667 C11.49775,9.28491667 11.902,9.69008333 11.902,10.1869167 L11.902,10.1869167 Z" id="Path" fill="#279151"></path>
                </g>
            </g>
        </g>
    </g>
</svg>
