<?xml version="1.0" encoding="UTF-8"?>
<svg width="20px" height="21px" viewBox="0 0 20 21" version="1.1" xmlns="http://www.w3.org/2000/svg" xmlns:xlink="http://www.w3.org/1999/xlink">
    <title>F40A91C2-321D-4E5A-A900-3424E05CDF31</title>
    <g id="Page-2" stroke="none" stroke-width="1" fill="none" fill-rule="evenodd">
        <g id="01-main-my-Wallet" transform="translate(-30.000000, -352.000000)" fill="#279151">
            <g id="Group-4-Copy" transform="translate(20.000000, 342.500000)">
                <g id="3-.ic/solid/ic_tick" transform="translate(9.999983, 10.000000)">
                    <path d="M18.5732762,17.7663972 C18.7778606,17.6325632 19.0361118,17.5854796 19.2813631,17.6366465 C19.5213643,17.6869801 19.7221986,17.8227308 19.8467826,18.0189818 C20.073367,18.3758169 19.9521164,18.8479859 19.5707812,19.0939871 C18.6644433,19.6783234 17.4788541,20.000075 16.2322645,20.000075 C14.9728415,20.000075 13.7781689,19.6724067 12.8684143,19.0774037 C12.6659967,18.9450697 12.5338293,18.7392354 12.5057459,18.5128176 C12.4214121,17.7785639 13.3209999,17.3811452 13.9130862,17.7803972 C15.1823426,18.594568 17.3166032,18.5881513 18.5732762,17.7663972 Z M16.3169149,-6.75015599e-14 C18.2958415,0.00308334875 19.9074329,1.60659137 19.9094329,3.57468454 L19.9094329,3.57468454 L19.9094329,7.58103791 C19.9094329,8.03754019 19.5373477,8.40762537 19.0784287,8.40762537 C18.6195931,8.40762537 18.2474246,8.03754019 18.2474246,7.58103791 L18.2474246,7.58103791 L18.2474246,3.72935198 C18.2039244,3.35560011 18.1085072,2.73326367 17.6355048,2.26276131 C17.1310857,1.76109214 16.4553323,1.65434161 16.1603308,1.65434161 L16.1603308,1.65434161 L3.74910208,1.65434161 C3.45568395,1.65434161 2.77834723,1.76109214 2.27392804,2.26276131 C1.76967552,2.76426382 1.66200831,3.43751719 1.66200831,3.72935198 L1.66200831,3.72935198 L1.66200831,16.2483312 C1.66200831,16.5503328 1.77017552,17.2188361 2.27392804,17.7156719 C2.3535951,17.794089 2.65876329,18.0801737 3.39643365,18.2553413 C3.59093462,18.3016748 3.79085229,18.3243416 3.99076995,18.3243416 L3.99076995,18.3243416 L8.28762477,18.3243416 C8.74687707,18.3243416 9.1190456,18.6946768 9.1190456,19.1515124 C9.1190456,19.6082647 8.74687707,19.9785166 8.28762477,19.9785166 L8.28762477,19.9785166 L3.5926013,19.9785166 C1.6135914,19.9755165 0.00200001,18.3725085 8.34887715e-13,16.4049154 L8.34887715e-13,16.4049154 L8.34887715e-13,3.57468454 C0.00200001,1.60659137 1.6135914,0.00308334875 3.5926013,-6.75015599e-14 L3.5926013,-6.75015599e-14 Z M18.5731595,15.1584925 C18.7776606,15.0247418 19.0356618,14.9773249 19.2813297,15.0289918 C20.0040834,15.1697425 20.2196678,16.0668303 19.5707479,16.4859991 C17.7829056,17.6857551 14.6818901,17.6856718 12.8939645,16.4862491 C12.5126292,16.2403312 12.3912953,15.7681622 12.6177964,15.4113271 C12.8675477,14.9964916 13.4961341,14.8874078 13.8913861,15.1584925 C15.1603091,15.9884966 17.3044032,15.9884133 18.5731595,15.1584925 Z M12.5357293,12.4014287 C12.6937301,9.18907928 19.8379325,9.18957928 20.0000167,12.395512 C20.0001,13.7558521 18.3606751,14.8166908 16.2679147,14.8166908 C14.1751542,14.8166908 12.5357293,13.7558521 12.5357293,12.4014287 Z M16.2679147,11.597258 C15.675745,11.597258 15.1089922,11.725342 14.7129902,11.9487597 C14.4462389,12.0998438 14.2994048,12.2605946 14.2994048,12.4014287 C14.2994048,12.5422627 14.4462389,12.7029302 14.7129902,12.8541809 C15.4989942,13.3190166 17.0367519,13.3192666 17.8200891,12.8556809 C18.3705919,12.5400127 18.3715919,12.264178 17.8228391,11.9486764 C17.4270871,11.7254253 16.8601676,11.597258 16.2679147,11.597258 Z M12.6117297,4.1666875 C13.0250651,4.1666875 13.3572335,4.56785617 13.33215,5.05144192 C13.3088165,5.49677748 12.9698982,5.8333625 12.5834796,5.8333625 L7.41662042,5.8333625 C7.03028515,5.8333625 6.69128346,5.49677748 6.66803334,5.05144192 C6.64294988,4.56785617 6.97503488,4.1666875 7.38845361,4.1666875 L12.6117297,4.1666875 Z" id="Combined-Shape"></path>
                </g>
            </g>
        </g>
    </g>
</svg>
