<?xml version="1.0" encoding="UTF-8"?>
<svg width="55px" height="66px" viewBox="0 0 55 66" version="1.1" xmlns="http://www.w3.org/2000/svg" xmlns:xlink="http://www.w3.org/1999/xlink">
    <title>788185BC-B05B-4E96-9418-EE35623494A0</title>
    <defs>
        <path d="M49.9413925,58.4383302 L46.0698726,58.4383302 L46.0698726,45.8083491 C46.0698726,44.7969639 45.6208249,43.8595825 44.8440936,43.2428843 L30.9964317,32.1053131 L44.85623,20.955408 C45.6329613,20.3263757 46.082009,19.3889943 46.082009,18.3899431 L46.082009,6.54933586 L49.9535289,6.54933586 C51.7254471,6.54933586 53.1818182,5.08159393 53.1818182,3.26850095 C53.1818182,1.45540797 51.7254471,0 49.9413925,0 L3.22828928,0 C1.4563711,0 0,1.46774194 0,3.28083491 C0,5.09392789 1.44423468,6.56166983 3.22828928,6.56166983 L7.09980914,6.56166983 L7.09980914,18.402277 C7.09980914,19.4136622 7.54885689,20.3387097 8.32558815,20.9677419 L22.1732501,32.1053131 L8.32558815,43.2428843 C7.54885689,43.8719165 7.09980914,44.8092979 7.09980914,45.8083491 L7.09980914,58.4383302 L3.22828928,58.4383302 C1.4563711,58.4383302 0,59.9060721 0,61.7191651 C0,63.5322581 1.44423468,65 3.22828928,65 L49.9535289,65 C51.7254471,65 53.1818182,63.5322581 53.1818182,61.7191651 C53.1818182,59.9060721 51.7254471,58.4383302 49.9413925,58.4383302 Z M13.5442513,47.3994307 L26.5909091,36.9032258 L39.6375669,47.3994307 L39.6375669,58.4383302 L13.5442513,58.4383302 L13.5442513,47.3994307 Z M13.5442513,16.8111954 L13.5442513,6.54933586 L39.6375669,6.54933586 L39.6375669,16.8111954 L26.5909091,27.3074004 L13.5442513,16.8111954 Z" id="path-1"></path>
    </defs>
    <g id="Page-2" stroke="none" stroke-width="1" fill="none" fill-rule="evenodd">
        <g id="01-add-screen-6" transform="translate(-152.000000, -176.000000)">
            <g id="Controls/Button/rectangle" transform="translate(115.000000, 144.000000)">
                <g id="3-.ic/solid/ic_tick" transform="translate(37.916667, 32.500000)">
                    <mask id="mask-2" fill="white">
                        <use xlink:href="#path-1"></use>
                    </mask>
                    <use id="Mask" fill="#279151" xlink:href="#path-1"></use>
                </g>
            </g>
        </g>
    </g>
</svg>
