<?xml version="1.0" encoding="UTF-8"?>
<svg width="22px" height="22px" viewBox="0 0 22 22" version="1.1" xmlns="http://www.w3.org/2000/svg" xmlns:xlink="http://www.w3.org/1999/xlink">
    <title>D7AD3507-D387-4287-8A24-099F7FFA187C</title>
    <g id="Page-2" stroke="none" stroke-width="1" fill="none" fill-rule="evenodd">
        <g id="01-Menu" transform="translate(-20.000000, -238.000000)">
            <g id="Componants/1-Menu-Item/line-48px-EN-Copy-6" transform="translate(0.000000, 224.000000)">
                <g id="icons/ic_left" transform="translate(20.000000, 14.064120)">
                    <path d="M21.1296028,9.55607852 L21.1296028,12.3167483 L19.0591132,12.6618383 C18.8467344,13.6705358 18.4486005,14.6261386 17.9177044,15.44903 L19.1387806,17.1744296 L17.1744804,19.1387298 L15.4756028,17.9442263 C14.6261894,18.4751224 13.6971085,18.8733072 12.6884111,19.0856351 L12.343321,21.1296028 L9.58265127,21.1296028 L9.2375612,19.0856351 C8.22886374,18.8732564 7.27326097,18.4751224 6.45036952,17.9442263 L4.75149192,19.1387298 L2.78719169,17.1744296 L3.98169515,15.475552 C3.45079908,14.6261386 3.05261432,13.6970577 2.84028637,12.6883603 L0.796318707,12.3432702 L0.796318707,9.58260046 L2.84028637,9.23751039 C3.05266513,8.22881293 3.45079908,7.27321016 3.98169515,6.45031871 L2.78719169,4.75149192 L4.75149192,2.78719169 L6.45036952,3.98169515 C7.29978291,3.45079908 8.22886374,3.05261432 9.2375612,2.84028637 L9.58265127,0.796318707 L12.343321,0.796318707 L12.6884111,2.84028637 C13.6971085,3.05266513 14.6527113,3.45079908 15.4756028,3.98169515 L17.1744804,2.76061894 L19.1387806,4.72491917 L17.9442771,6.42379677 C18.4751732,7.27321016 18.873358,8.20229099 19.0856859,9.21098845 L21.1296028,9.55607852 Z M14.5465219,10.936388 C14.5465219,8.94551501 12.9538337,7.35282679 10.9629607,7.35282679 C8.97208776,7.35282679 7.37939954,8.94551501 7.37939954,10.936388 C7.37939954,12.927261 8.97208776,14.5199492 10.9629607,14.5199492 C12.9538337,14.5199492 14.5465219,12.927261 14.5465219,10.936388 Z" id="Shape" fill="#F1EFFA"></path>
                    <path d="M12.3432702,0 C12.741455,0 13.0599723,0.291995381 13.1395889,0.66360739 L13.4050115,2.20320092 C14.1217136,2.38900693 14.8118938,2.68100231 15.4489792,3.05261432 L16.7231501,2.15010624 C17.0416674,1.91120554 17.4664249,1.96430023 17.7584203,2.22972286 L19.7227206,4.19402309 C19.9881432,4.45944573 20.0412379,4.91072517 19.8023372,5.20272055 L18.8998291,6.47689145 C19.2714411,7.14049885 19.5369145,7.83067898 19.7492425,8.52085912 L21.288836,8.78628176 C21.660448,8.83937644 21.9524434,9.18446651 21.9524434,9.58260046 L21.9524434,12.3432702 C21.9524434,12.741455 21.660448,13.0599723 21.288836,13.1395889 L19.7492425,13.4050115 C19.5634365,14.1217136 19.2714411,14.8118938 18.8998291,15.4489792 L19.8289099,16.7496721 C20.0412887,17.0681894 20.0147159,17.4929469 19.7492933,17.7849423 L17.7318984,19.6961478 C17.4664758,19.9615704 17.0151963,20.0146651 16.7232009,19.7757644 L15.44903,18.8997783 C14.7854226,19.2713903 14.0952425,19.5368637 13.4050624,19.7491917 L13.1396397,21.2887852 C13.0600231,21.6339261 12.7415058,21.9259215 12.343321,21.9259215 L9.58265127,21.9259215 C9.18446651,21.9259215 8.86594919,21.6339261 8.78633256,21.2623141 L8.52090993,19.7227206 C7.80420785,19.5369145 7.11402771,19.2449192 6.47694226,18.8733072 L5.20277136,19.7758152 C4.88425404,19.988194 4.45949654,19.9616212 4.1940739,19.6961986 L2.22977367,17.7318984 C1.96435104,17.4664758 1.91125635,17.0151963 2.15015704,16.7232009 L3.05266513,15.44903 C2.68105312,14.7854226 2.41557968,14.0952425 2.20325173,13.4050624 L0.663658199,13.1396397 C0.291995381,13.086545 0,12.741455 0,12.3432702 L0,9.58260046 C0,9.1844157 0.291995381,8.86589838 0.66360739,8.78628176 L2.20320092,8.52085912 C2.38900693,7.80415704 2.68100231,7.11397691 3.05261432,6.47689145 L2.15010624,5.20272055 C1.93772748,4.88420323 1.96430023,4.45944573 2.22972286,4.19402309 L4.19402309,2.22972286 C4.45944573,1.96430023 4.91072517,1.91120554 5.20272055,2.15010624 L6.47689145,3.05261432 C7.14049885,2.68100231 7.83067898,2.41552887 8.52085912,2.20320092 L8.78628176,0.66360739 C8.83937644,0.291995381 9.18446651,0 9.58260046,0 L12.3432702,0 Z M11.6265681,1.64563048 L10.2196859,1.64563048 L10.0338799,2.97284527 C9.98078522,3.29136259 9.74188453,3.55683603 9.42336721,3.60993072 C8.54738106,3.79573672 7.69796767,4.14082679 6.90159815,4.64520092 C6.63617552,4.80448499 6.29108545,4.80448499 6.02561201,4.61867898 L4.88425404,3.82241109 L3.82246189,4.83110855 L4.6187806,5.97251732 C4.80458661,6.23793995 4.80458661,6.58303002 4.64530254,6.8750254 C4.16750115,7.61830023 3.79588915,8.49423557 3.61003233,9.39679446 C3.5304157,9.71531178 3.29151501,9.95421247 2.97294688,10.0073072 L1.59263741,10.2462079 L1.59263741,11.6530901 L2.97294688,11.8919908 C3.2914642,11.9450855 3.55693764,12.1839861 3.61003233,12.5025035 C3.79583834,13.3784896 4.14092841,14.227903 4.64530254,15.0242725 C4.80458661,15.2896952 4.80458661,15.6347852 4.6187806,15.9002587 L3.82246189,17.0416674 L4.83115935,18.0503649 L5.97256813,17.2540462 C6.23799076,17.0682402 6.58308083,17.0682402 6.87507621,17.2275242 C7.61835104,17.7053256 8.49428637,18.0769376 9.39684527,18.2627945 C9.71536259,18.3424111 9.95426328,18.5813118 10.007358,18.8998799 L10.2462587,20.3332333 L11.6531409,20.3332333 L11.8920416,18.9529238 C11.9451363,18.6344065 12.184037,18.368933 12.5025543,18.3158383 C13.3785404,18.1300323 14.2279538,17.7849423 15.0243233,17.2805681 C15.289746,17.1212841 15.634836,17.1212841 15.9003095,17.3070901 L17.0417182,18.1034088 L18.0504157,17.0947113 L17.2275242,15.9267298 C17.0417182,15.6612564 17.0417182,15.3162171 17.2010023,15.0242217 C17.6788037,14.2809469 18.0504157,13.4050115 18.2362217,12.5024527 C18.3158383,12.1839353 18.554739,11.9450346 18.8733072,11.89194 L20.2801894,11.6530393 L20.2801894,10.246157 L18.8998799,10.0072564 C18.5813626,9.95416166 18.3158891,9.71526097 18.2627945,9.39674365 C18.0769885,8.52075751 17.7318984,7.67134411 17.2275242,6.8749746 C17.0682402,6.60955196 17.0682402,6.26446189 17.2540462,5.99898845 L18.0503649,4.85757968 L17.0416674,3.84888222 L15.9002587,4.67177367 C15.634836,4.85757968 15.289746,4.88415242 14.9977506,4.69829561 C14.2544758,4.22049423 13.3785404,3.84888222 12.4759815,3.6630254 C12.1574642,3.58340878 11.9185635,3.34450808 11.8654688,3.02593995 L11.6265681,1.64563048 Z M10.9629607,6.55650808 C13.3785404,6.55650808 15.3428406,8.52080831 15.3428406,10.936388 C15.3428406,13.3519677 13.3785404,15.3162679 10.9629607,15.3162679 C8.54738106,15.3162679 6.58308083,13.3519677 6.58308083,10.936388 C6.58308083,8.52080831 8.54738106,6.55650808 10.9629607,6.55650808 Z M10.9629607,8.1491963 C9.39684527,8.1491963 8.17576905,9.37027252 8.17576905,10.936388 C8.17576905,12.5025035 9.39684527,13.7235797 10.9629607,13.7235797 C12.5290762,13.7235797 13.7501524,12.5025035 13.7501524,10.936388 C13.7501524,9.37027252 12.529127,8.1491963 10.9629607,8.1491963 Z" id="Combined-Shape" fill="#279151"></path>
                </g>
            </g>
        </g>
    </g>
</svg>
