<?xml version="1.0" encoding="UTF-8"?>
<svg width="40px" height="30px" viewBox="0 0 40 30" version="1.1" xmlns="http://www.w3.org/2000/svg" xmlns:xlink="http://www.w3.org/1999/xlink">
    <title>D7D8675E-CC26-41B3-9812-879087614FE4</title>
    <defs>
        <path d="M35.7594609,0.779085873 C36.7962675,-0.259695291 38.1855884,-0.259695291 39.222395,0.779085873 C40.2592017,1.46468144 40.2592017,3.2098338 39.222395,4.24861496 L39.222395,4.24861496 L14.2975635,29.2209141 C13.2607569,30.2596953 11.871436,30.2596953 10.8346293,29.2209141 L10.8346293,29.2209141 L2.16692587,20.8898892 L0.777604977,19.4979224 C-0.259201659,18.4591413 -0.259201659,17.0671745 0.777604977,16.0283934 C1.81441161,14.9896122 3.2037325,14.9896122 4.24053914,16.0283934 L4.24053914,16.0283934 L11.1664075,22.9674515 L11.1664075,22.9674515 L11.7677553,23.5699446 C12.1202696,23.9231302 12.9082426,23.6738227 13.2607569,23.3206371 L13.2607569,23.3206371 L35.7594609,0.779085873 Z" id="path-1"></path>
    </defs>
    <g id="Rental" stroke="none" stroke-width="1" fill="none" fill-rule="evenodd">
        <g id="04-Rent-Payment-done" transform="translate(-160.000000, -381.000000)">
            <g id="Controls/Button/circle" transform="translate(140.000000, 356.000000)">
                <g id="3-.ic/solid/ic_tick" transform="translate(20.000000, 25.000000)">
                    <mask id="mask-2" fill="white">
                        <use xlink:href="#path-1"></use>
                    </mask>
                    <use id="Mask" fill="#279151" xlink:href="#path-1"></use>
                </g>
            </g>
        </g>
    </g>
</svg>
