<?xml version="1.0" encoding="UTF-8"?>
<svg width="22px" height="22px" viewBox="0 0 22 22" version="1.1" xmlns="http://www.w3.org/2000/svg" xmlns:xlink="http://www.w3.org/1999/xlink">
    <title>E278CEBD-F2C6-4A56-BAA5-0CDFB54B3568</title>
    <g id="Page-2" stroke="none" stroke-width="1" fill="none" fill-rule="evenodd">
        <g id="01-main-my-screens-1" transform="translate(-20.000000, -579.000000)" fill="#279151">
            <g id="Componants/1-Menu-Item/line-48px-EN-Copy-2" transform="translate(0.000000, 560.000000)">
                <g id="icons/ic_left" transform="translate(20.000000, 18.999725)">
                    <path d="M12.8452266,1.42108547e-14 C14.3366432,1.42108547e-14 15.6355599,1.01475 15.9976432,2.46125 L15.9976432,2.46125 L16.2983099,3.663 C16.2983099,3.66575 16.3001432,3.66666667 16.3028932,3.66666667 L16.3028932,3.66666667 L21.0466432,3.66666667 C21.5379766,3.66666667 21.9678932,4.037 21.9981432,4.5265 C22.0302266,5.05908333 21.6085599,5.5 21.0833099,5.5 L21.0833099,5.5 L20.1217266,5.5 C20.1189766,5.5 20.1171432,5.50275 20.1162266,5.50458333 L20.1162266,5.50458333 L19.3443932,19.4021667 C19.2628099,20.8596667 18.0573932,22 16.5980599,22 L16.5980599,22 L5.40189322,22 C3.94164322,22 2.73622655,20.8596667 2.65464322,19.40125 L2.65464322,19.40125 L1.88280989,5.50458333 C1.88280989,5.50275 1.88005989,5.5 1.87730989,5.5 L1.87730989,5.5 L0.916643219,5.5 C0.391393219,5.5 -0.0311901148,5.05908333 0.00180988521,4.5265 C0.0311432185,4.037 0.461059885,3.66666667 0.952393219,3.66666667 L0.952393219,3.66666667 L5.69614322,3.66666667 C5.69889322,3.66666667 5.70072655,3.66575 5.70164322,3.663 L5.70164322,3.663 L6.00139322,2.46125 C6.36255989,1.01475 7.66239322,1.42108547e-14 9.15289322,1.42108547e-14 L9.15289322,1.42108547e-14 Z M18.2755599,5.5 L3.72439322,5.5 C3.72072655,5.5 3.71889322,5.50275 3.71889322,5.5055 L3.71889322,5.5055 L4.48522655,19.3004167 C4.51180989,19.78625 4.91422655,20.1666667 5.40189322,20.1666667 L5.40189322,20.1666667 L16.5980599,20.1666667 C17.0848099,20.1666667 17.4872266,19.78625 17.5138099,19.3004167 L17.5138099,19.3004167 L18.2801432,5.5055 C18.2801432,5.50275 18.2783099,5.5 18.2755599,5.5 L18.2755599,5.5 Z M7.27610989,7.33544167 C7.80869322,7.30335833 8.24960989,7.725025 8.24960989,8.250275 L8.24960989,8.250275 L8.24960989,17.4169417 C8.24960989,17.941275 7.80869322,18.3638583 7.27610989,18.331775 C6.78660989,18.3024417 6.41627655,17.8716083 6.41627655,17.3811917 L6.41627655,17.3811917 L6.41627655,8.286025 C6.41627655,7.79560833 6.78660989,7.364775 7.27610989,7.33544167 Z M10.9427766,7.33544167 C11.4753599,7.30335833 11.9162766,7.725025 11.9162766,8.250275 L11.9162766,8.250275 L11.9162766,17.4169417 C11.9162766,17.941275 11.4753599,18.3638583 10.9427766,18.331775 C10.4532766,18.3024417 10.0829432,17.8716083 10.0829432,17.3811917 L10.0829432,17.3811917 L10.0829432,8.286025 C10.0829432,7.79560833 10.4532766,7.364775 10.9427766,7.33544167 Z M14.6099016,7.33544167 C15.1415682,7.30335833 15.5834016,7.725025 15.5834016,8.250275 L15.5834016,8.250275 L15.5834016,17.4169417 C15.5834016,17.941275 15.1415682,18.3638583 14.6099016,18.331775 C14.1204016,18.3024417 13.7500682,17.8716083 13.7500682,17.3811917 L13.7500682,17.3811917 L13.7500682,8.286025 C13.7500682,7.79560833 14.1194849,7.364775 14.6099016,7.33544167 Z M12.8415599,1.83333333 L9.15655989,1.83333333 C8.50572655,1.83333333 7.93739322,2.277 7.77972655,2.9095 L7.77972655,2.9095 L7.59180989,3.66025 C7.59089322,3.66391667 7.59364322,3.66666667 7.59639322,3.66666667 L7.59639322,3.66666667 L14.4026432,3.66666667 C14.4053932,3.66666667 14.4081432,3.66391667 14.4072266,3.66025 L14.4072266,3.66025 L14.2193099,2.9095 C14.0616432,2.277 13.4933099,1.83333333 12.8415599,1.83333333 L12.8415599,1.83333333 Z" id="Combined-Shape"></path>
                </g>
            </g>
        </g>
    </g>
</svg>
