<?xml version="1.0" encoding="UTF-8"?>
<svg width="22px" height="22px" viewBox="0 0 22 22" version="1.1" xmlns="http://www.w3.org/2000/svg" xmlns:xlink="http://www.w3.org/1999/xlink">
    <title>6468F1B7-6869-4481-B2DD-1181D078D785</title>
    <g id="Page-2" stroke="none" stroke-width="1" fill="none" fill-rule="evenodd">
        <g id="01-Menu" transform="translate(-20.000000, -138.000000)">
            <g id="Componants/1-Menu-Item/line-48px-EN" transform="translate(0.000000, 124.000000)">
                <g id="icons/ic_left" transform="translate(20.458333, 14.000000)">
                    <path d="M19.9121829,21.3193643 L1.04083876,21.3193643 C1.04083876,14.7705271 6.11951318,13.3271225 10.4764853,13.3271225 C14.8334574,13.3271225 19.9121829,14.7705271 19.9121829,21.3193643 Z" id="Path" fill="#F1EFFA"></path>
                    <path d="M10.541693,12.3917355 C17.3401256,12.3917355 21.0833333,15.5230957 21.0833333,21.1971042 C21.0833333,21.6520597 20.7255655,22 20.2576382,22 L0.825695182,22 C0.35776788,22 6.75015599e-14,21.6520597 6.75015599e-14,21.1971042 C6.75015599e-14,15.5231469 3.74326037,12.3917355 10.541693,12.3917355 Z M10.5416403,13.9975783 C4.9817768,13.9975783 2.00921093,16.138702 1.67894339,20.3941572 L19.4043899,20.3941572 C19.0741224,16.138702 16.1015039,13.9975783 10.5416403,13.9975783 Z M10.541693,7.90478794e-14 C13.6519186,7.90478794e-14 16.0189501,2.32846435 16.0189501,5.43308348 C16.0189501,8.61802805 13.5693123,11.2141072 10.541693,11.2141072 C7.51407376,11.2141072 5.06443588,8.61797682 5.06443588,5.43308348 C5.06443588,2.32846435 7.43146737,7.90478794e-14 10.541693,7.90478794e-14 Z M10.541693,1.60584278 C8.3122686,1.60584278 6.71587893,3.21168556 6.71587893,5.43308348 C6.71587893,7.73480684 8.42237534,9.60826447 10.541693,9.60826447 C12.6610107,9.60826447 14.3675071,7.73480684 14.3675071,5.43308348 C14.3675071,3.23842656 12.716064,1.60584278 10.541693,1.60584278 Z" id="Combined-Shape" fill="#279151"></path>
                </g>
            </g>
        </g>
    </g>
</svg>
