<?xml version="1.0" encoding="UTF-8"?>
<svg width="40px" height="38px" viewBox="0 0 40 38" version="1.1" xmlns="http://www.w3.org/2000/svg" xmlns:xlink="http://www.w3.org/1999/xlink">
    <title>AEA1F2E1-0AF0-4CAC-BA9B-6A5F3CD184D5</title>
    <g id="Rental" stroke="none" stroke-width="1" fill="none" fill-rule="evenodd">
        <g id="04-Rent-Payment-Failed" transform="translate(-160.000000, -353.000000)" fill="#D90C43">
            <g id="Controls/Button/circle" transform="translate(140.000000, 332.000000)">
                <g id="3-.ic/solid/ic_tick" transform="translate(19.999961, 21.739178)">
                    <path d="M19.9856655,9.9475983e-13 C22.4726118,9.9475983e-13 24.6998884,1.23840601 25.997318,3.33927336 L26.1376162,3.57623318 L39.0000392,25.8721973 C40.2813534,28.0919283 40.2731399,30.7473842 38.9836121,32.9753363 C37.7322188,35.139574 35.5414318,36.4629187 33.0814283,36.5546828 L32.8070208,36.5597907 L7.11502897,36.5597907 C4.55240063,36.5597907 2.26081952,35.2361734 0.979505356,33.0328849 C-0.270171426,30.8874495 -0.324072159,28.3303438 0.817803156,26.1397319 L0.954864699,25.8886398 L13.8337148,3.56801196 C15.1068154,1.34005979 17.4066101,9.9475983e-13 19.9856655,9.9475983e-13 Z M19.9856655,3.22272048 C18.6472888,3.22272048 17.4563464,3.8720379 16.741074,4.98193573 L16.6263226,5.17115097 L3.7474725,27.4835575 C3.041107,28.7167414 3.04932055,30.1801196 3.75568605,31.4050822 C4.41709317,32.5499961 5.57977724,33.2521935 6.88756782,33.3229375 L7.10681542,33.328849 L32.7988072,33.328849 C34.2115382,33.328849 35.4764253,32.5971599 36.1910043,31.3639761 C36.8558189,30.2110701 36.9022013,28.8615374 36.3301516,27.7060611 L36.215645,27.4917788 L23.3450084,5.1793722 C22.6468565,3.95440957 21.390183,3.22272048 19.9856655,3.22272048 Z M19.977452,25.6913303 C21.1027086,25.6913303 22.0308401,26.6203288 21.9815587,27.7959641 C22.0308401,28.8647235 21.0534273,29.8019432 19.977452,29.8019432 C18.8604088,29.8019432 17.9240639,28.8647235 17.9240639,27.7466368 C17.9240639,26.6285501 18.8604088,25.6913303 19.977452,25.6913303 Z M19.4682117,11.2630792 C20.4456245,11.0328849 21.4230372,11.5014948 21.8419284,12.422272 C21.9815587,12.7511211 22.0308401,13.0799701 22.0308401,13.4499253 C21.9815587,14.4775785 21.8912097,15.5052317 21.8419284,16.5328849 C21.7515793,18.1195815 21.6530166,19.706278 21.5626676,21.2929746 C21.5133863,21.8109118 21.5133863,22.2795217 21.5133863,22.7892377 C21.4723185,23.6360239 20.8152343,24.2855007 19.977452,24.2855007 C19.1396696,24.2855007 18.490799,23.67713 18.4415177,22.838565 C18.3018873,20.3639761 18.1622569,17.9387145 18.0226265,15.4641256 C17.9733452,14.8146487 17.9322774,14.1569507 17.8829961,13.5074738 C17.8829961,12.4304933 18.490799,11.5426009 19.4682117,11.2630792 Z" id="Combined-Shape"></path>
                </g>
            </g>
        </g>
    </g>
</svg>