 <svg  version="1.0" xmlns="http://www.w3.org/2000/svg"  width="20.000000pt" height="23.000000pt" viewBox="0 0 20.000000 23.000000"  preserveAspectRatio="xMidYMid meet">  <g transform="translate(0.000000,23.000000) scale(0.100000,-0.100000)" fill="#0aa0d1" stroke="none"> <path d="M44 147 c17 -22 26 -47 26 -70 0 -33 3 -37 25 -37 21 0 25 5 25 31 0 27 2 30 15 19 9 -7 18 -10 21 -8 10 11 -91 98 -114 98 l-23 0 25 -33z m57 -64 l-6 -38 -3 35 c-2 19 -9 42 -16 50 -28 33 -27 43 0 18 26 -24 29 -33 25 -65z"/> <path d="M112 173 c20 -3 25 -8 21 -21 -6 -15 -3 -14 15 2 12 11 22 21 22 23 0 1 -19 2 -42 2 -29 -2 -34 -3 -16 -6z"/> </g> </svg> 