 <svg  version="1.0" xmlns="http://www.w3.org/2000/svg"  width="300.000000pt" height="300.000000pt" viewBox="0 0 300.000000 300.000000"  preserveAspectRatio="xMidYMid meet">  <g transform="translate(0.000000,300.000000) scale(0.100000,-0.100000)" fill="#4e4b4b" stroke="none"> <path d="M1215 2740 c-611 -96 -1038 -662 -954 -1266 80 -579 592 -1002 1174 -971 222 12 421 85 627 230 16 10 47 -17 255 -225 131 -130 248 -241 260 -247 93 -47 209 69 162 162 -6 12 -117 129 -247 260 -208 208 -235 239 -225 255 100 141 159 267 201 421 22 84 25 117 26 261 0 138 -3 179 -22 252 -107 430 -408 736 -831 845 -108 28 -321 39 -426 23z m398 -274 c303 -89 525 -316 609 -621 18 -66 22 -106 21 -225 0 -128 -3 -155 -26 -233 -92 -300 -304 -512 -604 -604 -78 -23 -105 -26 -233 -26 -119 -1 -159 3 -225 21 -305 84 -528 303 -622 609 -24 79 -26 104 -26 238 0 134 2 159 26 238 102 334 361 565 704 627 90 17 279 4 376 -24z"/> </g> </svg> 