<svg width="50" height="50" viewBox="0 0 50 50" fill="none" xmlns="http://www.w3.org/2000/svg">
<path d="M37 17H48V30H37V17Z" fill="#0382F3"/>
<path d="M37 17H48V30H37V17Z" fill="url(#paint0_linear_3358_13855)" fill-opacity="0.2"/>
<path d="M0 34H4V38H0V34Z" fill="#1BB6F9"/>
<path d="M0 34H4V38H0V34Z" fill="url(#paint1_linear_3358_13855)" fill-opacity="0.2"/>
<path d="M44 33H48V38H44V33Z" fill="#0382F3"/>
<path d="M44 33H48V38H44V33Z" fill="url(#paint2_linear_3358_13855)" fill-opacity="0.2"/>
<path d="M0 38C0 35.7909 1.79086 34 4 34L48 34V38C48 40.2091 46.2091 42 44 42H4C1.79086 42 0 40.2091 0 38Z" fill="#102E7A"/>
<path d="M0 38C0 35.7909 1.79086 34 4 34L48 34V38C48 40.2091 46.2091 42 44 42H4C1.79086 42 0 40.2091 0 38Z" fill="url(#paint3_linear_3358_13855)" fill-opacity="0.3"/>
<path d="M4.42105 8C1.97937 8 0 9.95875 0 12.375V34H46C48.4417 34 50 32.4162 50 30V26C50 24.8954 49.1046 24 48 24H42C40.1687 24 39 22.8122 39 21C39 19.1878 40.1687 18 42 18H48C49.1046 18 50 17.1046 50 16V12.375C50 9.95875 48.0206 8 45.5789 8H4.42105Z" fill="#1BB6F9"/>
<path d="M4.42105 8C1.97937 8 0 9.95875 0 12.375V34H46C48.4417 34 50 32.4162 50 30V26C50 24.8954 49.1046 24 48 24H42C40.1687 24 39 22.8122 39 21C39 19.1878 40.1687 18 42 18H48C49.1046 18 50 17.1046 50 16V12.375C50 9.95875 48.0206 8 45.5789 8H4.42105Z" fill="url(#paint4_linear_3358_13855)" fill-opacity="0.2"/>
<defs>
<linearGradient id="paint0_linear_3358_13855" x1="37" y1="17" x2="50.1611" y2="19.7841" gradientUnits="userSpaceOnUse">
<stop stop-color="white"/>
<stop offset="1" stop-color="white" stop-opacity="0"/>
</linearGradient>
<linearGradient id="paint1_linear_3358_13855" x1="0" y1="34" x2="4.70588" y2="35.1765" gradientUnits="userSpaceOnUse">
<stop stop-color="white"/>
<stop offset="1" stop-color="white" stop-opacity="0"/>
</linearGradient>
<linearGradient id="paint2_linear_3358_13855" x1="44" y1="33" x2="48.8077" y2="33.9615" gradientUnits="userSpaceOnUse">
<stop stop-color="white"/>
<stop offset="1" stop-color="white" stop-opacity="0"/>
</linearGradient>
<linearGradient id="paint3_linear_3358_13855" x1="0" y1="34" x2="18.4615" y2="61.6923" gradientUnits="userSpaceOnUse">
<stop stop-color="white"/>
<stop offset="1" stop-color="white" stop-opacity="0"/>
</linearGradient>
<linearGradient id="paint4_linear_3358_13855" x1="0" y1="8" x2="50.766" y2="32.4067" gradientUnits="userSpaceOnUse">
<stop stop-color="white"/>
<stop offset="1" stop-color="white" stop-opacity="0"/>
</linearGradient>
</defs>
</svg>
