<svg width="50" height="50" viewBox="0 0 50 50" fill="none" xmlns="http://www.w3.org/2000/svg">
<path d="M29.3186 6.86208C33.1347 3.04597 39.3218 3.04597 43.1379 6.86208C46.954 10.6782 46.954 16.8653 43.1379 20.6814L20.6814 43.1379C16.8653 46.954 10.6782 46.954 6.86208 43.1379C3.04597 39.3218 3.04597 33.1347 6.86208 29.3186L29.3186 6.86208Z" fill="#FC787D"/>
<path d="M29.3186 6.86208C33.1347 3.04597 39.3218 3.04597 43.1379 6.86208C46.954 10.6782 46.954 16.8653 43.1379 20.6814L20.6814 43.1379C16.8653 46.954 10.6782 46.954 6.86208 43.1379C3.04597 39.3218 3.04597 33.1347 6.86208 29.3186L29.3186 6.86208Z" fill="url(#paint0_linear_3358_13652)" fill-opacity="0.2"/>
<path d="M43.1379 29.3186C46.954 33.1347 46.954 39.3218 43.1379 43.1379C39.3218 46.954 33.1347 46.954 29.3185 43.1379L6.86209 20.6814C3.04597 16.8653 3.04597 10.6782 6.86209 6.86208C10.6782 3.04597 16.8653 3.04597 20.6815 6.86209L43.1379 29.3186Z" fill="#00CEB3"/>
<path d="M43.1379 29.3186C46.954 33.1347 46.954 39.3218 43.1379 43.1379C39.3218 46.954 33.1347 46.954 29.3185 43.1379L6.86209 20.6814C3.04597 16.8653 3.04597 10.6782 6.86209 6.86208C10.6782 3.04597 16.8653 3.04597 20.6815 6.86209L43.1379 29.3186Z" fill="url(#paint1_linear_3358_13652)" fill-opacity="0.2"/>
<path d="M25 11.1807L11.1807 25.0009L25 38.8203L38.8194 25L25 11.1807Z" fill="#006158"/>
<path d="M25 11.1807L11.1807 25.0009L25 38.8203L38.8194 25L25 11.1807Z" fill="url(#paint2_linear_3358_13652)" fill-opacity="0.2"/>
<defs>
<linearGradient id="paint0_linear_3358_13652" x1="4" y1="4" x2="53.4118" y2="16.3529" gradientUnits="userSpaceOnUse">
<stop stop-color="white"/>
<stop offset="1" stop-color="white" stop-opacity="0"/>
</linearGradient>
<linearGradient id="paint1_linear_3358_13652" x1="4" y1="4" x2="53.4118" y2="16.3529" gradientUnits="userSpaceOnUse">
<stop stop-color="white"/>
<stop offset="1" stop-color="white" stop-opacity="0"/>
</linearGradient>
<linearGradient id="paint2_linear_3358_13652" x1="11.1807" y1="11.1807" x2="43.6969" y2="19.3095" gradientUnits="userSpaceOnUse">
<stop stop-color="white"/>
<stop offset="1" stop-color="white" stop-opacity="0"/>
</linearGradient>
</defs>
</svg>
