<svg width="50" height="50" viewBox="0 0 50 50" fill="none" xmlns="http://www.w3.org/2000/svg">
<path d="M4 8C4 5.79086 5.79086 4 8 4H25V21C25 23.2091 23.2091 25 21 25H4V8Z" fill="#FC787D"/>
<path d="M4 8C4 5.79086 5.79086 4 8 4H25V21C25 23.2091 23.2091 25 21 25H4V8Z" fill="url(#paint0_linear_3358_13440)" fill-opacity="0.2"/>
<path d="M4 35C4 32.7909 5.79086 31 8 31H19V42C19 44.2091 17.2091 46 15 46H4V35Z" fill="#F9383D"/>
<path d="M4 35C4 32.7909 5.79086 31 8 31H19V42C19 44.2091 17.2091 46 15 46H4V35Z" fill="url(#paint1_linear_3358_13440)" fill-opacity="0.2"/>
<path d="M25 46H29C31.2091 46 33 44.2091 33 42V31H29C26.7909 31 25 32.7909 25 35V46Z" fill="#FBB130"/>
<path d="M25 46H29C31.2091 46 33 44.2091 33 42V31H29C26.7909 31 25 32.7909 25 35V46Z" fill="url(#paint2_linear_3358_13440)" fill-opacity="0.2"/>
<path d="M31 17L31 21C31 23.2091 32.7909 25 35 25L46 25V21C46 18.7909 44.2091 17 42 17L31 17Z" fill="#0382F3"/>
<path d="M31 17L31 21C31 23.2091 32.7909 25 35 25L46 25V21C46 18.7909 44.2091 17 42 17L31 17Z" fill="url(#paint3_linear_3358_13440)" fill-opacity="0.2"/>
<path d="M31 4L31 8C31 10.2091 32.7909 12 35 12L46 12V8C46 5.79086 44.2091 4 42 4L31 4Z" fill="#1BB6F9"/>
<path d="M31 4L31 8C31 10.2091 32.7909 12 35 12L46 12V8C46 5.79086 44.2091 4 42 4L31 4Z" fill="url(#paint4_linear_3358_13440)" fill-opacity="0.2"/>
<path d="M38 46H42C44.2091 46 46 44.2091 46 42V31H42C39.7909 31 38 32.7909 38 35V46Z" fill="#F77B09"/>
<path d="M38 46H42C44.2091 46 46 44.2091 46 42V31H42C39.7909 31 38 32.7909 38 35V46Z" fill="url(#paint5_linear_3358_13440)" fill-opacity="0.2"/>
<defs>
<linearGradient id="paint0_linear_3358_13440" x1="4" y1="4" x2="28.7059" y2="10.1765" gradientUnits="userSpaceOnUse">
<stop stop-color="white"/>
<stop offset="1" stop-color="white" stop-opacity="0"/>
</linearGradient>
<linearGradient id="paint1_linear_3358_13440" x1="4" y1="31" x2="21.6471" y2="35.4118" gradientUnits="userSpaceOnUse">
<stop stop-color="white"/>
<stop offset="1" stop-color="white" stop-opacity="0"/>
</linearGradient>
<linearGradient id="paint2_linear_3358_13440" x1="25" y1="31" x2="34.8253" y2="32.31" gradientUnits="userSpaceOnUse">
<stop stop-color="white"/>
<stop offset="1" stop-color="white" stop-opacity="0"/>
</linearGradient>
<linearGradient id="paint3_linear_3358_13440" x1="31" y1="17" x2="46.3723" y2="24.2058" gradientUnits="userSpaceOnUse">
<stop stop-color="white"/>
<stop offset="1" stop-color="white" stop-opacity="0"/>
</linearGradient>
<linearGradient id="paint4_linear_3358_13440" x1="31" y1="4" x2="46.3723" y2="11.2058" gradientUnits="userSpaceOnUse">
<stop stop-color="white"/>
<stop offset="1" stop-color="white" stop-opacity="0"/>
</linearGradient>
<linearGradient id="paint5_linear_3358_13440" x1="38" y1="31" x2="47.8253" y2="32.31" gradientUnits="userSpaceOnUse">
<stop stop-color="white"/>
<stop offset="1" stop-color="white" stop-opacity="0"/>
</linearGradient>
</defs>
</svg>
