<svg width="50" height="50" viewBox="0 0 50 50" fill="none" xmlns="http://www.w3.org/2000/svg">
<path d="M10 41H46C46 42.6569 44.6569 44 43 44H10V41Z" fill="#00CEB3"/>
<path d="M10 41H46C46 42.6569 44.6569 44 43 44H10V41Z" fill="url(#paint0_linear_3358_13698)" fill-opacity="0.2"/>
<path d="M9 41H28C28 42.6569 26.5822 44 24.8333 44H9V41Z" fill="#00A079"/>
<path d="M9 41H28C28 42.6569 26.5822 44 24.8333 44H9V41Z" fill="url(#paint1_linear_3358_13698)" fill-opacity="0.2"/>
<path d="M40.7059 7.28247C42.4314 8.99243 42.4314 11.765 40.7059 13.4749L9.90533 44H4V37.8082L34.4574 7.28247C36.1831 5.57251 38.9805 5.57251 40.7059 7.28247Z" fill="#003458"/>
<path d="M40.7059 7.28247C42.4314 8.99243 42.4314 11.765 40.7059 13.4749L9.90533 44H4V37.8082L34.4574 7.28247C36.1831 5.57251 38.9805 5.57251 40.7059 7.28247Z" fill="url(#paint2_linear_3358_13698)" fill-opacity="0.3"/>
<defs>
<linearGradient id="paint0_linear_3358_13698" x1="10" y1="41" x2="14.5" y2="54.5" gradientUnits="userSpaceOnUse">
<stop stop-color="white"/>
<stop offset="1" stop-color="white" stop-opacity="0"/>
</linearGradient>
<linearGradient id="paint1_linear_3358_13698" x1="9" y1="41" x2="15.7723" y2="51.7228" gradientUnits="userSpaceOnUse">
<stop stop-color="white"/>
<stop offset="1" stop-color="white" stop-opacity="0"/>
</linearGradient>
<linearGradient id="paint2_linear_3358_13698" x1="4" y1="6" x2="48.7059" y2="17.1765" gradientUnits="userSpaceOnUse">
<stop stop-color="white"/>
<stop offset="1" stop-color="white" stop-opacity="0"/>
</linearGradient>
</defs>
</svg>
