<svg width="50" height="50" viewBox="0 0 50 50" fill="none" xmlns="http://www.w3.org/2000/svg">
<path d="M42 25C42 34.3888 34.3888 42 25 42C15.6112 42 8 34.3888 8 25C8 15.6112 15.6112 8 25 8C34.3888 8 42 15.6112 42 25Z" fill="#F77B09"/>
<path d="M42 25C42 34.3888 34.3888 42 25 42C15.6112 42 8 34.3888 8 25C8 15.6112 15.6112 8 25 8C34.3888 8 42 15.6112 42 25Z" fill="url(#paint0_linear_3358_13537)" fill-opacity="0.2"/>
<path d="M19.0078 40.9138C12.5756 38.4907 8 32.2797 8 25C8 15.6112 15.6112 8 25 8C32.2803 8 38.4916 12.5764 40.9144 19.0093C38.0269 29.6485 29.6474 38.0273 19.0078 40.9138Z" fill="#FBB130"/>
<path d="M19.0078 40.9138C12.5756 38.4907 8 32.2797 8 25C8 15.6112 15.6112 8 25 8C32.2803 8 38.4916 12.5764 40.9144 19.0093C38.0269 29.6485 29.6474 38.0273 19.0078 40.9138Z" fill="url(#paint1_linear_3358_13537)" fill-opacity="0.2"/>
<path d="M19.6792 15.3607C19.6792 13.5524 18.1591 12.0291 16.4885 12.7211C15.4769 13.1402 14.5577 13.7543 13.7834 14.5286C13.0092 15.3028 12.395 16.222 11.976 17.2336C11.284 18.9042 12.8073 20.4243 14.6156 20.4243H15.6792C17.8884 20.4243 19.6792 18.6335 19.6792 16.4243V15.3607Z" fill="white"/>
<path d="M8.25794 42.6964C8.14279 42.3855 8.24648 41.9484 8.48954 41.7201L45.3041 7.13556C45.5471 6.90722 45.8375 6.97415 45.9527 7.28505C46.0678 7.59595 45.9641 8.03308 45.7211 8.26142L8.90653 42.8459C8.66348 43.0743 8.37309 43.0073 8.25794 42.6964Z" fill="#00CEB3"/>
<path d="M8.25794 42.6964C8.14279 42.3855 8.24648 41.9484 8.48954 41.7201L45.3041 7.13556C45.5471 6.90722 45.8375 6.97415 45.9527 7.28505C46.0678 7.59595 45.9641 8.03308 45.7211 8.26142L8.90653 42.8459C8.66348 43.0743 8.37309 43.0073 8.25794 42.6964Z" fill="url(#paint2_linear_3358_13537)" fill-opacity="0.2"/>
<path d="M4.036 42.6569C3.92654 42.324 4.0751 41.8938 4.36782 41.6958L42.8063 15.7051C43.099 15.5071 43.4251 15.6165 43.5345 15.9494C43.644 16.2822 43.4954 16.7125 43.2027 16.9104L4.7642 42.9012C4.47149 43.0991 4.14546 42.9897 4.036 42.6569Z" fill="#00A079"/>
<path d="M4.036 42.6569C3.92654 42.324 4.0751 41.8938 4.36782 41.6958L42.8063 15.7051C43.099 15.5071 43.4251 15.6165 43.5345 15.9494C43.644 16.2822 43.4954 16.7125 43.2027 16.9104L4.7642 42.9012C4.47149 43.0991 4.14546 42.9897 4.036 42.6569Z" fill="url(#paint3_linear_3358_13537)" fill-opacity="0.2"/>
<defs>
<linearGradient id="paint0_linear_3358_13537" x1="8" y1="8" x2="48" y2="18" gradientUnits="userSpaceOnUse">
<stop stop-color="white"/>
<stop offset="1" stop-color="white" stop-opacity="0"/>
</linearGradient>
<linearGradient id="paint1_linear_3358_13537" x1="8" y1="8" x2="46.7227" y2="17.6809" gradientUnits="userSpaceOnUse">
<stop stop-color="white"/>
<stop offset="1" stop-color="white" stop-opacity="0"/>
</linearGradient>
<linearGradient id="paint2_linear_3358_13537" x1="8.21094" y1="7" x2="52.4006" y2="18.6023" gradientUnits="userSpaceOnUse">
<stop stop-color="white"/>
<stop offset="1" stop-color="white" stop-opacity="0"/>
</linearGradient>
<linearGradient id="paint3_linear_3358_13537" x1="4" y1="15.6064" x2="47.7566" y2="31.4084" gradientUnits="userSpaceOnUse">
<stop stop-color="white"/>
<stop offset="1" stop-color="white" stop-opacity="0"/>
</linearGradient>
</defs>
</svg>
