<svg width="50" height="50" viewBox="0 0 50 50" fill="none" xmlns="http://www.w3.org/2000/svg">
<path d="M16.8273 16.6358C19.1495 14.3136 19.1495 10.5484 16.8273 8.22609C14.505 5.9038 10.7398 5.9038 8.4175 8.22609C6.72498 9.91861 6.26599 12.3776 7.04054 14.4858C2.3862 22.5091 3.49359 32.9581 10.3627 39.8273L10.4058 39.8702L14.3408 35.9351L14.2979 35.8923C9.52236 31.1168 8.53757 23.986 11.3435 18.2392C13.2576 18.6587 15.3388 18.1243 16.8273 16.6358Z" fill="#F77B09"/>
<path d="M16.8273 16.6358C19.1495 14.3136 19.1495 10.5484 16.8273 8.22609C14.505 5.9038 10.7398 5.9038 8.4175 8.22609C6.72498 9.91861 6.26599 12.3776 7.04054 14.4858C2.3862 22.5091 3.49359 32.9581 10.3627 39.8273L10.4058 39.8702L14.3408 35.9351L14.2979 35.8923C9.52236 31.1168 8.53757 23.986 11.3435 18.2392C13.2576 18.6587 15.3388 18.1243 16.8273 16.6358Z" fill="url(#paint0_linear_3358_13646)" fill-opacity="0.2"/>
<path d="M10.4062 39.8706C16.243 45.6747 24.6445 47.3366 31.95 44.8563L27.3483 40.2545C22.7404 40.9023 17.8954 39.4626 14.3413 35.9355L10.4062 39.8706Z" fill="#FBB130"/>
<path d="M10.4062 39.8706C16.243 45.6747 24.6445 47.3366 31.95 44.8563L27.3483 40.2545C22.7404 40.9023 17.8954 39.4626 14.3413 35.9355L10.4062 39.8706Z" fill="url(#paint1_linear_3358_13646)" fill-opacity="0.2"/>
<path d="M39.1007 31.6308C37.1186 31.104 34.9174 31.6179 33.3628 33.1725C31.0405 35.4948 31.0405 39.26 33.3628 41.5823C35.6851 43.9045 39.4503 43.9045 41.7726 41.5823C43.3776 39.9772 43.8733 37.6829 43.2597 35.6521C47.9979 27.6274 46.932 17.1242 40.0618 10.2148L36.1269 14.1498C40.8298 18.8892 41.8211 25.9238 39.1007 31.6308Z" fill="#00A079"/>
<path d="M39.1007 31.6308C37.1186 31.104 34.9174 31.6179 33.3628 33.1725C31.0405 35.4948 31.0405 39.26 33.3628 41.5823C35.6851 43.9045 39.4503 43.9045 41.7726 41.5823C43.3776 39.9772 43.8733 37.6829 43.2597 35.6521C47.9979 27.6274 46.932 17.1242 40.0618 10.2148L36.1269 14.1498C40.8298 18.8892 41.8211 25.9238 39.1007 31.6308Z" fill="url(#paint2_linear_3358_13646)" fill-opacity="0.2"/>
<path d="M18.2686 5.19978L22.8421 9.77333C27.5257 9.05457 32.4771 10.4989 36.0844 14.1063C36.0987 14.1205 36.1129 14.1348 36.1271 14.1491L40.062 10.2142C40.0478 10.1999 40.0336 10.1856 40.0193 10.1713C34.1371 4.28914 25.6299 2.63196 18.2686 5.19978Z" fill="#00CEB3"/>
<path d="M18.2686 5.19978L22.8421 9.77333C27.5257 9.05457 32.4771 10.4989 36.0844 14.1063C36.0987 14.1205 36.1129 14.1348 36.1271 14.1491L40.062 10.2142C40.0478 10.1999 40.0336 10.1856 40.0193 10.1713C34.1371 4.28914 25.6299 2.63196 18.2686 5.19978Z" fill="url(#paint3_linear_3358_13646)" fill-opacity="0.2"/>
<defs>
<linearGradient id="paint0_linear_3358_13646" x1="4.2207" y1="6.48438" x2="21.9514" y2="8.38941" gradientUnits="userSpaceOnUse">
<stop stop-color="white"/>
<stop offset="1" stop-color="white" stop-opacity="0"/>
</linearGradient>
<linearGradient id="paint1_linear_3358_13646" x1="10.4063" y1="35.9355" x2="31.3131" y2="47.1569" gradientUnits="userSpaceOnUse">
<stop stop-color="white"/>
<stop offset="1" stop-color="white" stop-opacity="0"/>
</linearGradient>
<linearGradient id="paint2_linear_3358_13646" x1="31.6211" y1="10.2148" x2="49.5792" y2="12.1864" gradientUnits="userSpaceOnUse">
<stop stop-color="white"/>
<stop offset="1" stop-color="white" stop-opacity="0"/>
</linearGradient>
<linearGradient id="paint3_linear_3358_13646" x1="18.2686" y1="4.0293" x2="39.3886" y2="15.4" gradientUnits="userSpaceOnUse">
<stop stop-color="white"/>
<stop offset="1" stop-color="white" stop-opacity="0"/>
</linearGradient>
</defs>
</svg>
